<svg xmlns="http://www.w3.org/2000/svg" xmlns:xlink="http://www.w3.org/1999/xlink" width="263.817" height="141.687" viewBox="0 0 263.817 141.687">
  <defs>
    <clipPath id="clip-path">
      <path id="Caminho_9482" data-name="Caminho 9482" d="M.587.512,91.361.125l-.444,104.537-90.774.387Z" fill="#cf681a"/>
    </clipPath>
    <clipPath id="clip-path-3">
      <path id="Caminho_9480" data-name="Caminho 9480" d="M.4.4,70.95.1l-.3,70.926L.1,71.324Z" fill="#cf681a"/>
    </clipPath>
  </defs>
  <g id="Grupo_16723" data-name="Grupo 16723" transform="translate(-1242.709 -1145.239)">
    <g id="Grupo_16396" data-name="Grupo 16396" transform="matrix(-0.875, 0.485, -0.485, -0.875, 1373.544, 1242.743)" opacity="0.4">
      <g id="Grupo_16395" data-name="Grupo 16395" transform="translate(0 0)" clip-path="url(#clip-path)">
        <g id="Grupo_16394" data-name="Grupo 16394" transform="translate(0 0)">
          <g id="Grupo_16393" data-name="Grupo 16393" clip-path="url(#clip-path)">
            <path id="Caminho_9477" data-name="Caminho 9477" d="M7.952.22a4.756,4.756,0,0,1,1.5.467,6.269,6.269,0,0,1,2.984,3.036,6.448,6.448,0,0,1,.6,2.943,6.615,6.615,0,0,1-1.022,3.306,6.225,6.225,0,0,1-1.23,1.436,6.212,6.212,0,0,1-1.658,1.063,6.539,6.539,0,0,1-4.052.419A6.466,6.466,0,0,1,1.591,10.8a6.07,6.07,0,0,1-1.04-1.66A6.105,6.105,0,0,1,.06,7.324,6.56,6.56,0,0,1,2.38,1.5,6.361,6.361,0,0,1,6.392.009,4.764,4.764,0,0,1,7.952.22C7.944.264,7.4.111,6.4.151A6.374,6.374,0,0,0,2.546,1.694,6.314,6.314,0,0,0,.394,7.281,5.841,5.841,0,0,0,.87,9a5.774,5.774,0,0,0,.992,1.565,6.109,6.109,0,0,0,7.122,1.577,5.869,5.869,0,0,0,1.574-1,5.9,5.9,0,0,0,1.173-1.352,6.353,6.353,0,0,0,1-3.136A6.3,6.3,0,0,0,9.389.814C8.5.356,7.938.263,7.952.22" transform="translate(66.729 80.193)" fill="#cf681a"/>
            <path id="Caminho_9478" data-name="Caminho 9478" d="M24.86,5.014a1.424,1.424,0,0,1-.013-.224c0-.167-.007-.392-.012-.682-.006-.626-.015-1.526-.026-2.7l.045.057L19.067.225l.1-.052L17.634,3.439l-.027.059-.065,0a14.5,14.5,0,0,0-3.779.689l-.069.022-.051-.051L11.105,1.637l.162.017L6.252,4.877l.06-.171c.369,1.049.777,2.2,1.194,3.386l.03.087-.063.068A14.689,14.689,0,0,0,5.263,11.4l-.044.086h-.1l-3.582.028.159-.129c-.413,1.829-.858,3.8-1.316,5.823l-.092-.191,3.23,1.528.1.045,0,.1a14.5,14.5,0,0,0,.642,3.779l.032.1-.077.077L1.681,25.222,1.707,25c1,1.59,2.069,3.294,3.154,5.021l-.213-.074,3.381-1.223.1-.038.081.075a14.208,14.208,0,0,0,3.107,2.195h0c.044.072-.1-.161.1.162v.9l0,.9,0,1.8-.142-.178,5.78,1.281-.2.1L18.4,32.664l.047-.1.108,0a14.323,14.323,0,0,0,3.765-.672l.1-.033.075.075,2.528,2.533-.216-.022,5.024-3.206-.069.2-1.184-3.391-.033-.094.069-.073a14.626,14.626,0,0,0,2.219-3.148l.046-.086h.1l3.581-.017-.148.12c.469-2.046.912-3.979,1.335-5.818l.076.157-3.226-1.539-.071-.034,0-.08a14.583,14.583,0,0,0-.631-3.795l-.021-.07.051-.052,2.547-2.555-.016.134L31.322,6.06l.1.033-3.389,1.2L28,7.306l-.026-.024A14.828,14.828,0,0,0,25.677,5.51l-.615-.371a1.539,1.539,0,0,1-.2-.125,1.681,1.681,0,0,1,.217.1c.141.072.355.182.631.345A13.87,13.87,0,0,1,28.05,7.195l-.059-.012,3.374-1.244.06-.022.036.055,3.174,5.008.046.072-.061.062-2.53,2.573.03-.121a14.688,14.688,0,0,1,.663,3.856l-.074-.114,3.234,1.523.1.048-.025.11c-.415,1.841-.85,3.775-1.312,5.824l-.027.119h-.121l-3.583.029.141-.086a14.957,14.957,0,0,1-2.26,3.225l.034-.167q.586,1.664,1.192,3.388l.045.127-.114.072-5.018,3.216-.118.076-.1-.1-2.531-2.529.177.043a14.642,14.642,0,0,1-3.857.693l.155-.1q-.766,1.614-1.549,3.26l-.062.131-.141-.031L11.191,34.9l-.142-.032v-.146q0-.895,0-1.8l0-.9v-.9a1.66,1.66,0,1,1,.1.162h0a14.556,14.556,0,0,1-3.186-2.251l.185.038L4.767,30.289l-.137.049-.077-.123L1.4,25.193l-.076-.121.1-.1c.877-.885,1.745-1.76,2.541-2.562l-.044.179a14.88,14.88,0,0,1-.652-3.872l.1.15L.146,17.33l-.122-.058.031-.133,1.329-5.82.03-.128h.129l3.582-.017-.14.086A14.946,14.946,0,0,1,7.254,8.042L7.222,8.2C6.808,7.011,6.406,5.854,6.041,4.8L6,4.7l.1-.062,5.028-3.2.089-.057.073.073L13.811,3.99l-.12-.029a14.651,14.651,0,0,1,3.843-.676l-.093.062L19,.094l.032-.068.072.017L24.88,1.356l.046.01v.046c-.016,1.159-.028,2.052-.036,2.671-.006.295-.011.522-.015.691a2.032,2.032,0,0,1-.014.239" transform="translate(54.949 68.534)" fill="#cf681a"/>
            <g id="Grupo_16392" data-name="Grupo 16392" transform="translate(0.189 0.114)" opacity="0.8">
              <g id="Grupo_16391" data-name="Grupo 16391">
                <g id="Grupo_16390" data-name="Grupo 16390" clip-path="url(#clip-path-3)">
                  <path id="Caminho_9479" data-name="Caminho 9479" d="M48.784,9.706a28.43,28.43,0,0,1,6.231,4.4L61.7,11.686l6.234,9.932-5.022,5.071a28.965,28.965,0,0,1,1.28,7.567l6.387,3.029L67.964,48.8l-7.085.046a29.163,29.163,0,0,1-4.43,6.3l2.348,6.7L48.866,68.2l-5-5.006a28.725,28.725,0,0,1-7.538,1.349L33.26,70.994,21.826,68.463l.016-7.123a28.319,28.319,0,0,1-6.232-4.4L8.922,59.358,2.688,49.426l5.024-5.071a28.966,28.966,0,0,1-1.28-7.567L.046,33.76,2.661,22.244,9.746,22.2a29.169,29.169,0,0,1,4.43-6.3l-2.349-6.7,9.932-6.351,5,5.007A28.733,28.733,0,0,1,34.3,6.5L37.366.051,48.8,2.583ZM38.638,23.285a12.7,12.7,0,0,0-15.069,9.637A12.532,12.532,0,0,0,33.026,47.99,12.7,12.7,0,0,0,48.1,38.353a12.531,12.531,0,0,0-9.458-15.068" transform="translate(0.21 0.188)" fill="#cf681a" fill-rule="evenodd"/>
                </g>
              </g>
            </g>
          </g>
        </g>
      </g>
    </g>
    <g id="Grupo_16404" data-name="Grupo 16404" transform="translate(1377.241 1145.239)" opacity="0.31">
      <rect id="Retângulo_10831" data-name="Retângulo 10831" width="19.129" height="62.421" transform="translate(0 50.34)" fill="#cf681a"/>
      <rect id="Retângulo_10832" data-name="Retângulo 10832" width="19.129" height="88.111" transform="translate(35.209 24.65)" fill="#cf681a"/>
      <rect id="Retângulo_10833" data-name="Retângulo 10833" width="19.129" height="100.108" transform="translate(72.68 12.652)" fill="#cf681a"/>
      <rect id="Retângulo_10834" data-name="Retângulo 10834" width="19.129" height="112.761" transform="translate(110.155)" fill="#cf681a"/>
    </g>
  </g>
</svg>
