<svg id="logo1" xmlns="http://www.w3.org/2000/svg" xmlns:xlink="http://www.w3.org/1999/xlink" width="205.088" height="43" viewBox="0 0 205.088 43">
  <defs>
    <linearGradient id="linear-gradient" x1="1" y1="0.187" x2="0.214" y2="0.919" gradientUnits="objectBoundingBox">
      <stop offset="0" stop-color="#efae74"/>
      <stop offset="0.406" stop-color="#ca7b45"/>
      <stop offset="1" stop-color="#855737"/>
    </linearGradient>
  </defs>
  <g id="Grupo_16657" data-name="Grupo 16657">
    <path id="Caminho_43" data-name="Caminho 43" d="M0,5.526V.116H3.292V.647H.6V2.516h2.22V3.04H.6V4.995h2.69v.532ZM6.732.561q-1.173,0-1.173.884a.761.761,0,0,0,.27.676,3.6,3.6,0,0,0,1.095.367,2.781,2.781,0,0,1,1.169.477,1.206,1.206,0,0,1,.344.966Q8.436,5.6,6.708,5.6a9.685,9.685,0,0,1-1.431-.133L5,5.425l.063-.5a13.383,13.383,0,0,0,1.618.141q1.157,0,1.157-1.087a.738.738,0,0,0-.254-.629,2.468,2.468,0,0,0-.95-.324,3.2,3.2,0,0,1-1.3-.5,1.257,1.257,0,0,1-.383-1.036Q4.949.03,6.693.03A9.614,9.614,0,0,1,8.061.147l.266.039L8.272.694A14.675,14.675,0,0,0,6.732.561ZM13.683,5.44a7.316,7.316,0,0,1-1.446.164A2.573,2.573,0,0,1,11.2,5.429a1.3,1.3,0,0,1-.61-.547,2.539,2.539,0,0,1-.3-.852,7.314,7.314,0,0,1-.082-1.2,7.462,7.462,0,0,1,.082-1.208,2.585,2.585,0,0,1,.3-.864A1.274,1.274,0,0,1,11.2.21,2.548,2.548,0,0,1,12.213.038a7.5,7.5,0,0,1,1.47.172l-.023.508A8.118,8.118,0,0,0,12.252.577a1.175,1.175,0,0,0-1.138.512,3.946,3.946,0,0,0-.278,1.747,7.723,7.723,0,0,0,.051.993,2.179,2.179,0,0,0,.2.676.881.881,0,0,0,.434.43,2.11,2.11,0,0,0,.837.129,7.2,7.2,0,0,0,1.3-.141Zm2.236-2.6a3.475,3.475,0,0,0,.313,1.708,1.294,1.294,0,0,0,1.208.52,1.3,1.3,0,0,0,1.2-.508,3.461,3.461,0,0,0,.309-1.7,3.592,3.592,0,0,0-.321-1.744,1.271,1.271,0,0,0-1.2-.547,1.265,1.265,0,0,0-1.2.543A3.584,3.584,0,0,0,15.919,2.845Zm3.659.016a3.689,3.689,0,0,1-.461,2.1,1.924,1.924,0,0,1-1.677.649,1.9,1.9,0,0,1-1.677-.665A3.727,3.727,0,0,1,15.3,2.848,3.82,3.82,0,0,1,15.77.73,1.866,1.866,0,0,1,17.436.038,1.882,1.882,0,0,1,19.1.726,3.819,3.819,0,0,1,19.578,2.86ZM24.6,5.526H21.618V.116h.6V4.987H24.6Zm1.228,0L27.31.116h1.314l1.486,5.41h-.594l-.391-1.392H26.81l-.391,1.392ZM27.764.632,26.943,3.6h2.048L28.17.632ZM37.11,5.5H35.179V.086H37.11a1.7,1.7,0,0,1,1.751,1.048,4.175,4.175,0,0,1,.25,1.579q0,2.041-1.016,2.572A2.116,2.116,0,0,1,37.11,5.5Zm1.384-2.783q0-1.556-.7-1.939A1.4,1.4,0,0,0,37.11.618H35.781V4.965H37.11Q38.494,4.965,38.494,2.713ZM41.16,5.5V.086h3.292V.618h-2.69V2.486h2.22V3.01h-2.22V4.965h2.69V5.5Zm7.92,0V.086h.6V5.5Zm2.862,0V.086h1.126L55.14,4.965H55.3V.086H55.9V5.5H54.8L52.693.618h-.149V5.5Zm9.3-5.41h.625L60.449,5.5H59.1L57.689.086h.625l1.243,4.879H60ZM63.654,5.5V.086h3.292V.618h-2.69V2.486h2.22V3.01h-2.22V4.965h2.69V5.5ZM70.386.532q-1.173,0-1.173.884a.761.761,0,0,0,.27.676,3.6,3.6,0,0,0,1.095.367,2.781,2.781,0,0,1,1.169.477,1.206,1.206,0,0,1,.344.966q0,1.665-1.728,1.665a9.685,9.685,0,0,1-1.431-.133l-.281-.039.063-.5a13.383,13.383,0,0,0,1.618.141q1.157,0,1.157-1.087a.738.738,0,0,0-.254-.629,2.468,2.468,0,0,0-.95-.324,3.2,3.2,0,0,1-1.3-.5A1.257,1.257,0,0,1,68.6,1.454Q68.6,0,70.347,0a9.614,9.614,0,0,1,1.368.117l.266.039-.055.508A14.675,14.675,0,0,0,70.386.532Zm3.12.094V.086h3.909V.625h-1.65V5.5h-.594V.625ZM79.119,5.5V.086h.6V5.5Zm2.862,0V.086h1.087L84.6,4.66,86.133.086H87.22V5.5h-.6V.727h-.109L84.937,5.3h-.672L82.693.727h-.109V5.5Zm7.506,0V.086h3.292V.618h-2.69V2.486h2.22V3.01h-2.22V4.965h2.69V5.5Zm5.262,0V.086h1.126l2.072,4.879h.164V.086h.594V5.5H97.6L95.5.618h-.149V5.5ZM100.41.625V.086h3.909V.625h-1.65V5.5h-.594V.625Zm5.856,2.189a3.475,3.475,0,0,0,.313,1.708,1.672,1.672,0,0,0,2.412.012,3.461,3.461,0,0,0,.309-1.7,3.592,3.592,0,0,0-.321-1.744,1.589,1.589,0,0,0-2.4,0A3.584,3.584,0,0,0,106.266,2.815Zm3.659.016a3.69,3.69,0,0,1-.461,2.1,1.925,1.925,0,0,1-1.677.649,1.9,1.9,0,0,1-1.677-.665,3.727,3.727,0,0,1-.461-2.091A3.821,3.821,0,0,1,106.117.7a2.359,2.359,0,0,1,3.335,0A3.818,3.818,0,0,1,109.925,2.83Zm3.534-2.3q-1.173,0-1.173.884a.761.761,0,0,0,.27.676,3.6,3.6,0,0,0,1.095.367,2.781,2.781,0,0,1,1.169.477,1.206,1.206,0,0,1,.344.966q0,1.665-1.728,1.665A9.685,9.685,0,0,1,112,5.434l-.281-.039.063-.5a13.383,13.383,0,0,0,1.618.141q1.157,0,1.157-1.087a.738.738,0,0,0-.254-.629,2.467,2.467,0,0,0-.95-.324,3.2,3.2,0,0,1-1.3-.5,1.257,1.257,0,0,1-.383-1.036Q111.676,0,113.42,0a9.614,9.614,0,0,1,1.368.117l.266.039L115,.665A14.675,14.675,0,0,0,113.459.532Z" transform="translate(55.281 34.467) rotate(0.056)" fill="#fff"/>
    <g id="Grupo_15" data-name="Grupo 15" transform="translate(53.944 2.997)">
      <path id="Caminho_41" data-name="Caminho 41" d="M366.671,56.83a.316.316,0,0,1-.316-.316V30.229a.316.316,0,0,1,.631,0V56.514a.316.316,0,0,1-.316.316" transform="translate(-340.187 -29.913)" fill="#e38a30"/>
      <g id="Grupo_14" data-name="Grupo 14" transform="translate(0 3.478)">
        <path id="Caminho_30" data-name="Caminho 30" d="M276.63,51.412l-.01,10.529-3.655,0,.01-10.528H271.5l0-2.018A1.092,1.092,0,0,1,272.6,48.3h.381v-.6q0-2.946.877-4.063a3.736,3.736,0,0,1,3.111-1.115,15.329,15.329,0,0,1,2.536.275l.573.082-.057,2.973q-1.2-.055-2.019-.057a1.191,1.191,0,0,0-1.091.435,3,3,0,0,0-.274,1.5V48.3l3.3,0,0,3.109Z" transform="translate(-271.502 -42.52)" fill="#fff"/>
        <path id="Caminho_31" data-name="Caminho 31" d="M317.831,66.918l-.006,5.673a2.171,2.171,0,0,0,.217.914,1.012,1.012,0,0,0,.681.369l-.032.785a1.891,1.891,0,0,1-2.286,1.781l-.017,0a5.005,5.005,0,0,1-1.677-.765,9.083,9.083,0,0,1-4.01.95q-4.228,0-4.223-4.477a3.693,3.693,0,0,1,1.176-3.095,6.569,6.569,0,0,1,3.6-1.074l2.919-.215v-.846a1.443,1.443,0,0,0-.381-1.16,1.934,1.934,0,0,0-1.227-.315l-5.128.213-.107-2.537a21.238,21.238,0,0,1,5.552-.786,5.432,5.432,0,0,1,3.79,1.095,4.6,4.6,0,0,1,1.156,3.492m-6.141,3.594a1.48,1.48,0,0,0-1.529,1.635q0,1.5,1.335,1.5a8.828,8.828,0,0,0,2.264-.325l.409-.109,0-2.919Z" transform="translate(-296.83 -56.866)" fill="#fff"/>
        <path id="Caminho_32" data-name="Caminho 32" d="M393.983,62.163l.736.164-.112,3.191q-2.155-.22-3.191-.221a3.032,3.032,0,0,0-2.5.8,5.328,5.328,0,0,0-.617,3.041,5.474,5.474,0,0,0,.611,3.069,3.011,3.011,0,0,0,2.522.835l3.164-.215.106,3.224a35.838,35.838,0,0,1-4.446.263q-3.028,0-4.349-1.709t-1.318-5.47q0-3.764,1.369-5.44c.91-1.117,3.3-2.4,8.02-1.533" transform="translate(-353.393 -56.536)" fill="#fff"/>
        <path id="Caminho_33" data-name="Caminho 33" d="M429.546,64.315q1.448-1.866,4.83-1.864t4.826,1.873a8.408,8.408,0,0,1,1.441,5.252q-.007,7.174-6.281,7.167t-6.266-7.18a8.408,8.408,0,0,1,1.451-5.249m2.815,8.336a2.538,2.538,0,0,0,4.01,0,6.479,6.479,0,0,0,.562-3.082,6.308,6.308,0,0,0-.556-3.055,2.582,2.582,0,0,0-4.01,0,6.3,6.3,0,0,0-.562,3.054,6.474,6.474,0,0,0,.556,3.083" transform="translate(-384.894 -56.952)" fill="#fff"/>
        <path id="Caminho_34" data-name="Caminho 34" d="M486.895,76.469l-3.655,0,.013-13.638,3.628,0v.764a6.835,6.835,0,0,1,3.41-1.088q2.728,0,3.762,1.613a9.352,9.352,0,0,1,1.032,4.965l-.007,7.392-3.577,0a.078.078,0,0,1-.078-.078l.007-7.2a6.142,6.142,0,0,0-.406-2.578,1.643,1.643,0,0,0-1.636-.833,6.182,6.182,0,0,0-2.155.38l-.327.109Z" transform="translate(-424.826 -56.993)" fill="#fff"/>
        <path id="Caminho_35" data-name="Caminho 35" d="M567.155,54.842l-3.355,0-.006,5.592a11.222,11.222,0,0,0,.04,1.159.941.941,0,0,0,.3.587,1.136,1.136,0,0,0,.8.246l2.073-.052.161,2.919a13.9,13.9,0,0,1-2.782.406q-2.455,0-3.354-1.108t-.9-4.079l.006-5.673-1.609,0,0-3.109,1.609,0,0-3.41a1.171,1.171,0,0,1,1.173-1.17l2.483,0,0,4.582,3.355,0Z" transform="translate(-479.349 -45.869)" fill="#fff"/>
        <path id="Caminho_36" data-name="Caminho 36" d="M598.342,77.3l.013-12.861a.777.777,0,0,1,.778-.776l2.851,0,0,1.446a15.407,15.407,0,0,1,3.13-1.447.947.947,0,0,1,1.235.9l0,2.457q-2.21.462-3.792.951l-.546.191L602,77.307Z" transform="translate(-508.173 -57.8)" fill="#fff"/>
        <path id="Caminho_37" data-name="Caminho 37" d="M643.225,67.237l-.006,5.673a2.17,2.17,0,0,0,.217.914,1.013,1.013,0,0,0,.682.369l-.033.8a1.884,1.884,0,0,1-2.3,1.761,5,5,0,0,1-1.677-.765,9.079,9.079,0,0,1-4.01.951q-4.228,0-4.224-4.478a3.694,3.694,0,0,1,1.176-3.094,6.569,6.569,0,0,1,3.6-1.074l2.919-.215v-.846a1.443,1.443,0,0,0-.381-1.16,1.934,1.934,0,0,0-1.227-.315l-5.128.213-.107-2.537a21.24,21.24,0,0,1,5.552-.786,5.432,5.432,0,0,1,3.79,1.095,4.605,4.605,0,0,1,1.156,3.492m-6.141,3.594a1.48,1.48,0,0,0-1.529,1.635q0,1.5,1.335,1.5a8.828,8.828,0,0,0,2.264-.325l.409-.109,0-2.919Z" transform="translate(-532.454 -57.097)" fill="#fff"/>
        <path id="Caminho_38" data-name="Caminho 38" d="M695.553,46.368l-.019,18.475-3.628,0v-.573a7.994,7.994,0,0,1-3.3.9q-2.973,0-4.144-1.723T683.294,58q0-3.724,1.41-5.427a5.177,5.177,0,0,1,4.243-1.7,15.039,15.039,0,0,1,2.427.275l.518.11,0-3.871a1.021,1.021,0,0,1,1.022-1.02Zm-4.052,15.2.382-.081.007-7.173a15.156,15.156,0,0,0-2.673-.276q-2.209,0-2.213,3.925a6.758,6.758,0,0,0,.488,3.028,1.7,1.7,0,0,0,1.622.9,9.471,9.471,0,0,0,2.387-.325" transform="translate(-569.689 -45.304)" fill="#fff"/>
        <path id="Caminho_39" data-name="Caminho 39" d="M741.821,73.266a2.714,2.714,0,0,0,1.84.561q2.536,0,4.528-.159l.764-.081.052,2.7a24.211,24.211,0,0,1-5.674.758,5.564,5.564,0,0,1-4.472-1.641q-1.39-1.638-1.386-5.32.007-7.337,6.035-7.331,5.946.006,5.94,6.17l-.275,2.536-8.019-.008a2.361,2.361,0,0,0,.667,1.814m4.028-4.592a3.73,3.73,0,0,0-.516-2.278,2.859,2.859,0,0,0-3.641.024,3.773,3.773,0,0,0-.561,2.25Z" transform="translate(-608.921 -57.171)" fill="#fff"/>
        <path id="Caminho_40" data-name="Caminho 40" d="M790.343,76.77l.013-13.638,2.182,0a1.446,1.446,0,0,1,1.444,1.447,13.886,13.886,0,0,1,4.366-1.769l0,3.682q-2.21.462-3.792.951l-.546.191L794,75.389a1.384,1.384,0,0,1-1.385,1.383Z" transform="translate(-647.205 -57.214)" fill="#fff"/>
        <path id="Caminho_42" data-name="Caminho 42" d="M360.842,62.493l.018-18.341a.377.377,0,0,1,.377-.376l2.9,0a.376.376,0,0,1,.376.377L364.5,62.5a.376.376,0,0,1-.377.376l-2.9,0a.376.376,0,0,1-.376-.377" transform="translate(-336.195 -43.43)" fill="#fff"/>
      </g>
    </g>
    <g id="Grupo_22" data-name="Grupo 22" transform="translate(0 0)">
      <path id="Caminho_44" data-name="Caminho 44" d="M1.147.638,29.9,10.557l1.54-1.7a5.426,5.426,0,0,1,5.825-1.98,39.921,39.921,0,0,1,6.167,2.31c.147.079,2.833,1.594,2.252,6.844l-.152,1.37-1.152-.758a3.081,3.081,0,0,0-1.483-.413c-1.792,0-2.814,2-3.356,3.679-.032.173-4.8,16-6.982,21.184a3.7,3.7,0,0,1-4.675,2.352l-.226-.075L12.382,26.562l15.7,5.842.966-3.239L13.058,23.733a5.753,5.753,0,0,1-3.93-7.577l.267-.807,21.592,7.3.168.057.824-3.191-26.1-9.095C3.973,9.788,2.216,9.044,1.306,7.235A7.53,7.53,0,0,1,.879,1.45ZM30.4,12.517,2.273,2.812c-.5,2.831,1.344,5.08,4.152,6.008L34.1,18.466l-1.882,6.381-21.7-7.337c-.444,2.444,1.006,3.937,3.074,4.62l17.58,5.974L29.129,34.6,17.84,30.4,28.624,41.9a2.01,2.01,0,0,0,2.331-1.337s6.912-20.882,6.951-21.077c1.322-4.1,3.441-4.943,4.99-4.943a4.508,4.508,0,0,1,1.181.161c.039-3.1-1.365-3.982-1.432-4.022a39.25,39.25,0,0,0-5.826-2.175,3.944,3.944,0,0,0-1.036-.144,4,4,0,0,0-3.03,1.551Z" transform="translate(-0.492 -0.638)" fill="url(#linear-gradient)"/>
    </g>
  </g>
</svg>
