<svg id="Grupo_16403" data-name="Grupo 16403" xmlns="http://www.w3.org/2000/svg" xmlns:xlink="http://www.w3.org/1999/xlink" width="267.345" height="99.693" viewBox="0 0 267.345 99.693">
  <defs>
    <clipPath id="clip-path">
      <rect id="Ret창ngulo_10828" data-name="Ret창ngulo 10828" width="86.681" height="87.555" fill="#cf681a" stroke="#cf681a" stroke-width="1"/>
    </clipPath>
    <clipPath id="clip-path-2">
      <rect id="Ret창ngulo_10829" data-name="Ret창ngulo 10829" width="74.076" height="17.229" fill="#cf681a"/>
    </clipPath>
  </defs>
  <g id="Grupo_16398" data-name="Grupo 16398" transform="translate(91.567 12.138)">
    <g id="Grupo_16397" data-name="Grupo 16397" clip-path="url(#clip-path)">
      <path id="Caminho_9483" data-name="Caminho 9483" d="M.1,40.909A43.49,43.49,0,0,1,46.18.1a43.627,43.627,0,0,1,40.405,46.55A43.489,43.489,0,0,1,40.5,87.459,43.628,43.628,0,0,1,.1,40.909" transform="translate(0 0)" fill="none" stroke="#cf681a" stroke-width="0.5"/>
      <path id="Caminho_9484" data-name="Caminho 9484" d="M62.958,44.9a8.529,8.529,0,0,1-1.531.1l-4.213.086c-3.574.05-8.554.084-14.175.093h-.278V44.9c0-.908,0-1.866,0-2.838,0-6.342.031-12.082.082-16.237.036-2,.066-3.662.089-4.921a11.008,11.008,0,0,1,.109-1.8,11.3,11.3,0,0,1,.109,1.8c.023,1.259.053,2.917.089,4.921.05,4.154.082,9.894.082,16.237,0,.972,0,1.93,0,2.838l-.278-.281c5.621.009,10.6.043,14.175.093l4.213.086a8.528,8.528,0,0,1,1.531.1" transform="translate(0.06 0.22)" fill="#cf681a" stroke="#cf681a" stroke-width="1"/>
      <path id="Caminho_9485" data-name="Caminho 9485" d="M43.172,7.11a12.287,12.287,0,0,1,.28,3.677,12.291,12.291,0,0,1-.28,3.678,12.291,12.291,0,0,1-.28-3.678,12.287,12.287,0,0,1,.28-3.677" transform="translate(0.06 0.082)" fill="#cf681a" stroke="#cf681a" stroke-width="1"/>
      <path id="Caminho_9486" data-name="Caminho 9486" d="M62.9,12.949a11.812,11.812,0,0,1-2.339,2.763,11.7,11.7,0,0,1-2.736,2.362,11.85,11.85,0,0,1,2.339-2.762A11.774,11.774,0,0,1,62.9,12.949" transform="translate(0.081 0.149)" fill="#cf681a" stroke="#cf681a" stroke-width="1"/>
      <path id="Caminho_9487" data-name="Caminho 9487" d="M74.43,25.545a15.077,15.077,0,0,1-2.986,2.013A15.006,15.006,0,0,1,68.3,29.309a9.675,9.675,0,0,1,2.854-2.234,9.568,9.568,0,0,1,3.278-1.529" transform="translate(0.095 0.294)" fill="#cf681a" stroke="#cf681a" stroke-width="1"/>
      <path id="Caminho_9488" data-name="Caminho 9488" d="M81.192,44.239a21.977,21.977,0,0,1-4.964.283,21.976,21.976,0,0,1-4.965-.283,22.046,22.046,0,0,1,4.965-.283,22.048,22.048,0,0,1,4.964.283" transform="translate(0.099 0.506)" fill="#cf681a" stroke="#cf681a" stroke-width="1"/>
      <path id="Caminho_9489" data-name="Caminho 9489" d="M12.449,43.578a19.627,19.627,0,0,1-4.689.283,19.627,19.627,0,0,1-4.689-.283A19.627,19.627,0,0,1,7.761,43.3a19.627,19.627,0,0,1,4.689.283" transform="translate(0.004 0.498)" fill="#cf681a" stroke="#cf681a" stroke-width="1"/>
      <path id="Caminho_9490" data-name="Caminho 9490" d="M17.308,57.49a20.592,20.592,0,0,1-3.543,3.246,20.38,20.38,0,0,1-3.894,2.8,20.826,20.826,0,0,1,3.543-3.246,20.661,20.661,0,0,1,3.894-2.8" transform="translate(0.014 0.661)" fill="#cf681a" stroke="#cf681a" stroke-width="1"/>
      <path id="Caminho_9491" data-name="Caminho 9491" d="M29.3,68.252a32.3,32.3,0,0,1-2.411,4.222,32.293,32.293,0,0,1-2.559,4.132,15.965,15.965,0,0,1,2.078-4.424,15.877,15.877,0,0,1,2.892-3.93" transform="translate(0.034 0.785)" fill="#cf681a" stroke="#cf681a" stroke-width="1"/>
      <path id="Caminho_9492" data-name="Caminho 9492" d="M43.172,82.246a22.639,22.639,0,0,1-.28-5.014,22.637,22.637,0,0,1,.28-5.015,22.637,22.637,0,0,1,.28,5.015,22.639,22.639,0,0,1-.28,5.014" transform="translate(0.06 0.83)" fill="#cf681a" stroke="#cf681a" stroke-width="1"/>
      <path id="Caminho_9493" data-name="Caminho 9493" d="M64.551,75.6a14.52,14.52,0,0,1-4.093-2.832,14.629,14.629,0,0,1-3.337-3.709,45.763,45.763,0,0,1,3.705,3.282A45.633,45.633,0,0,1,64.551,75.6" transform="translate(0.08 0.794)" fill="#cf681a" stroke="#cf681a" stroke-width="1"/>
      <path id="Caminho_9494" data-name="Caminho 9494" d="M74.578,64.8a17.327,17.327,0,0,1-3.287-2.919A17.375,17.375,0,0,1,68.4,58.557a17.335,17.335,0,0,1,3.288,2.92,17.412,17.412,0,0,1,2.89,3.32" transform="translate(0.095 0.673)" fill="#cf681a" stroke="#cf681a" stroke-width="1"/>
      <path id="Caminho_9495" data-name="Caminho 9495" d="M16.851,30.307a13.319,13.319,0,0,1-2.9-2.53,13.393,13.393,0,0,1-2.5-2.93,13.319,13.319,0,0,1,2.9,2.53,13.393,13.393,0,0,1,2.5,2.93" transform="translate(0.016 0.286)" fill="#cf681a" stroke="#cf681a" stroke-width="1"/>
      <path id="Caminho_9496" data-name="Caminho 9496" d="M29.226,17.268A12.8,12.8,0,0,1,26.375,14.8a12.833,12.833,0,0,1-2.456-2.87A12.777,12.777,0,0,1,26.771,14.4a12.827,12.827,0,0,1,2.455,2.869" transform="translate(0.033 0.137)" fill="#cf681a" stroke="#cf681a" stroke-width="1"/>
    </g>
  </g>
  <g id="Grupo_16400" data-name="Grupo 16400" transform="translate(0 0)" opacity="0.34">
    <g id="Grupo_16399" data-name="Grupo 16399" clip-path="url(#clip-path-2)">
      <path id="Caminho_9497" data-name="Caminho 9497" d="M0,17.229H74.076S67.526,5.188,48.458,6.941C30.248,8.614,29.322,1.017,20.062.082S3.086,6.317,0,17.229" transform="translate(0 0)" fill="#cf681a"/>
    </g>
  </g>
  <g id="Grupo_16402" data-name="Grupo 16402" transform="translate(193.269 29.367)" opacity="0.34">
    <g id="Grupo_16401" data-name="Grupo 16401" clip-path="url(#clip-path-2)">
      <path id="Caminho_9498" data-name="Caminho 9498" d="M0,17.229H74.076S67.526,5.188,48.458,6.941C30.248,8.614,29.322,1.017,20.062.082S3.086,6.317,0,17.229" transform="translate(0 0)" fill="#cf681a"/>
    </g>
  </g>
</svg>
